<svg width="24" height="24" xmlns="http://www.w3.org/2000/svg">

 <g>
  <title>background</title>
  <rect fill="none" id="canvas_background" height="402" width="582" y="-1" x="-1"/>
 </g>
 <g>
  <title>Layer 1</title>
  <path id="svg_1" fill="#3889c5" d="m12,1.71429c5.6806,0 10.2857,4.60507 10.2857,10.28571c0,5.6806 -4.6051,10.2857 -10.2857,10.2857c-5.68064,0 -10.28571,-4.6051 -10.28571,-10.2857c0,-5.68064 4.60507,-10.28571 10.28571,-10.28571zm0,7.71429c-0.4734,0 -0.8571,0.38374 -0.8571,0.85712l0,6.8572c0,0.4734 0.3837,0.8571 0.8571,0.8571c0.4734,0 0.8572,-0.3837 0.8572,-0.8571l0,-6.8572c0,-0.47338 -0.3838,-0.85712 -0.8572,-0.85712zm0,-3.64286c-0.5918,0 -1.0714,0.47969 -1.0714,1.07143c0,0.59174 0.4796,1.07143 1.0714,1.07143c0.5918,0 1.0714,-0.47969 1.0714,-1.07143c0,-0.59174 -0.4796,-1.07143 -1.0714,-1.07143z"/>
 </g>
</svg>